<svg width="361" height="273" viewBox="0 0 361 273" fill="none" xmlns="http://www.w3.org/2000/svg">
<g clip-path="url(#clip0_22_350)">
<path d="M330.683 117.302C327.162 103.735 321.624 90.76 314.261 78.8246C301.315 57.8534 278.398 26.0044 252.414 13.6132C212.272 -5.53448 175.779 -6.44627 142.935 23.6429C110.091 53.7321 90.0196 139.441 78.1593 154.029C66.299 168.618 30.7181 171.353 17.0332 194.148C3.3482 216.943 7.62703 270.739 7.62703 270.739H349.14C349.14 270.739 353.92 206.22 330.683 117.302Z" fill="#C0EB6A"/>
<path opacity="0.8" d="M330.683 117.302C327.162 103.735 321.624 90.76 314.261 78.8246C301.315 57.8534 278.398 26.0044 252.414 13.6132C212.272 -5.53448 175.779 -6.44627 142.935 23.6429C110.091 53.7321 90.0196 139.441 78.1593 154.029C66.299 168.618 30.7181 171.353 17.0332 194.148C3.3482 216.943 7.62703 270.739 7.62703 270.739H349.14C349.14 270.739 353.92 206.22 330.683 117.302Z" fill="white"/>
<path d="M302.611 84.5597C298.542 82.3441 296.699 84.195 295.212 82.3441C293.725 80.4931 299.281 75.688 288.187 70.8828C288.187 70.8828 287.448 60.534 272.285 60.1692C257.122 59.8045 261.2 70.5181 257.131 73.0985C253.062 75.6789 251.949 71.6214 247.88 74.2109C243.811 76.8004 245.663 81.9702 242.333 82.7179C239.003 83.4656 234.569 79.3899 230.473 81.9702C226.377 84.5506 226.431 86.7754 224.579 86.7754C222.727 86.7754 219.032 85.2892 216.815 86.7754C214.598 88.2616 212.007 90.0943 212.007 90.0943H305.585C305.585 90.0943 306.689 86.7754 302.611 84.5597Z" fill="#C0EB6A"/>
<path opacity="0.5" d="M302.611 84.5597C298.542 82.3441 296.699 84.195 295.212 82.3441C293.725 80.4931 299.281 75.688 288.187 70.8828C288.187 70.8828 287.448 60.534 272.285 60.1692C257.122 59.8045 261.2 70.5181 257.131 73.0985C253.062 75.6789 251.949 71.6214 247.88 74.2109C243.811 76.8004 245.663 81.9702 242.333 82.7179C239.003 83.4656 234.569 79.3899 230.473 81.9702C226.377 84.5506 226.431 86.7754 224.579 86.7754C222.727 86.7754 219.032 85.2892 216.815 86.7754C214.598 88.2616 212.007 90.0943 212.007 90.0943H305.585C305.585 90.0943 306.689 86.7754 302.611 84.5597Z" fill="white"/>
<path d="M191.051 28.1654C188.643 26.8433 187.548 27.9465 186.672 26.8433C185.796 25.74 189.08 22.9043 182.503 20.0595C182.503 20.0595 182.065 13.9232 173.078 13.677C164.092 13.4308 166.5 19.8133 164.092 21.3452C161.683 22.877 161.017 20.4334 158.618 22.0016C156.218 23.5699 157.304 26.5606 155.333 27.0439C153.363 27.5271 150.726 25.0653 148.318 26.5971C145.909 28.1289 145.9 29.451 144.805 29.451C143.71 29.451 141.521 28.5392 140.243 29.451C138.966 30.3628 137.388 31.4205 137.388 31.4205H192.848C192.848 31.4205 193.46 29.4784 191.051 28.1654Z" fill="#C0EB6A"/>
<path opacity="0.5" d="M191.051 28.1654C188.643 26.8433 187.548 27.9465 186.672 26.8433C185.796 25.74 189.08 22.9043 182.503 20.0595C182.503 20.0595 182.065 13.9232 173.078 13.677C164.092 13.4308 166.5 19.8133 164.092 21.3452C161.683 22.877 161.017 20.4334 158.618 22.0016C156.218 23.5699 157.304 26.5606 155.333 27.0439C153.363 27.5271 150.726 25.0653 148.318 26.5971C145.909 28.1289 145.9 29.451 144.805 29.451C143.71 29.451 141.521 28.5392 140.243 29.451C138.966 30.3628 137.388 31.4205 137.388 31.4205H192.848C192.848 31.4205 193.46 29.4784 191.051 28.1654Z" fill="white"/>
<path d="M162.878 122.49C160.47 121.177 159.375 122.271 158.49 121.177C157.605 120.083 160.908 117.229 154.33 114.384C154.33 114.384 153.892 108.248 144.905 108.002C135.919 107.756 138.328 114.138 135.919 115.67C133.51 117.202 132.844 114.758 130.445 116.327C128.046 117.895 129.131 120.931 127.152 121.369C125.172 121.806 122.59 119.39 120.145 120.931C117.7 122.472 117.727 123.776 116.632 123.776C115.538 123.776 113.348 122.864 112.071 123.776C110.793 124.688 109.224 125.745 109.224 125.745H164.685C164.685 125.745 165.287 123.803 162.878 122.49Z" fill="#C0EB6A"/>
<path opacity="0.5" d="M162.878 122.49C160.47 121.177 159.375 122.271 158.49 121.177C157.605 120.083 160.908 117.229 154.33 114.384C154.33 114.384 153.892 108.248 144.905 108.002C135.919 107.756 138.328 114.138 135.919 115.67C133.51 117.202 132.844 114.758 130.445 116.327C128.046 117.895 129.131 120.931 127.152 121.369C125.172 121.806 122.59 119.39 120.145 120.931C117.7 122.472 117.727 123.776 116.632 123.776C115.538 123.776 113.348 122.864 112.071 123.776C110.793 124.688 109.224 125.745 109.224 125.745H164.685C164.685 125.745 165.287 123.803 162.878 122.49Z" fill="white"/>
<path d="M11.1669 270.456L120.756 132.712C122.982 129.921 127.051 129.456 129.843 131.672C130.281 132.019 130.664 132.42 131.001 132.867L199.226 223.991L263.089 119.5C264.959 116.454 268.946 115.497 271.993 117.366C272.951 117.959 273.745 118.788 274.292 119.773L356.265 269.754L11.1669 270.456Z" fill="#C0EB6A"/>
<path opacity="0.4" d="M11.1669 270.456L120.756 132.712C122.982 129.921 127.051 129.456 129.843 131.672C130.281 132.019 130.664 132.42 131.001 132.867L199.226 223.991L263.089 119.5C264.959 116.454 268.946 115.497 271.993 117.366C272.951 117.959 273.745 118.788 274.292 119.773L356.265 269.754L11.1669 270.456Z" fill="white"/>
<path opacity="0.1" d="M128.201 130.724L165.223 270.137L234.469 270L131.001 132.866C130.29 131.9 129.314 131.161 128.201 130.724Z" fill="black"/>
<path opacity="0.1" d="M274.328 119.773C273.097 117.503 270.615 116.181 268.042 116.436L322.052 269.818L356.301 269.754L274.328 119.773Z" fill="black"/>
<path opacity="0.2" d="M79.7012 269.645L83.98 245.974L68.7258 269.645H79.7012Z" fill="black"/>
<path d="M275.241 270.046H322.263C321.35 264.292 317.701 265.305 317.172 256.369C316.925 251.883 321.086 246.339 320.721 240.44C320.429 235.589 315.639 230.611 315.247 225.058C314.909 220.043 318.996 214.49 318.604 209.083C318.23 203.977 313.376 199.054 312.948 193.774C312.519 188.495 316.524 182.988 316.059 177.754C315.593 172.52 310.639 167.724 310.119 162.555C309.581 157.248 313.459 151.54 312.856 146.461C312.227 141.073 307.136 136.432 306.47 131.462C305.695 125.928 309.298 120.028 308.459 115.251C307.428 109.406 301.981 105.175 300.832 100.863C298.697 92.8297 299.007 85.0886 296.444 84.578C293.707 84.04 293.141 91.6353 291.106 100.124C290.076 104.382 284.72 108.704 283.881 114.558C283.169 119.29 286.937 125.052 286.317 130.56C285.769 135.483 280.843 140.225 280.323 145.586C279.876 150.619 283.899 156.181 283.498 161.451C283.114 166.566 278.306 171.481 277.969 176.66C277.631 181.839 281.792 187.31 281.509 192.443C281.217 197.713 276.491 202.683 276.254 207.752C275.989 213.104 280.222 218.511 280.022 223.481C279.794 228.951 275.132 234.03 274.958 238.844C274.748 244.689 279.045 250.087 278.909 254.536C278.626 264.192 274.201 262.195 274.046 269.964L275.241 270.046Z" fill="#C0EB6A"/>
<path d="M295.413 100.088V267.903" stroke="#263238" stroke-miterlimit="10"/>
<path d="M302.748 117.685L295.093 124.287L288.835 115.944" stroke="#263238" stroke-miterlimit="10"/>
<path d="M302.748 146.89L295.093 153.5L288.835 145.148" stroke="#263238" stroke-miterlimit="10"/>
<path d="M302.748 174.362L295.093 180.973L288.835 172.621" stroke="#263238" stroke-miterlimit="10"/>
<path d="M302.748 207.05L295.093 213.651L288.835 205.308" stroke="#263238" stroke-miterlimit="10"/>
<path d="M302.748 240.084L295.093 246.686L288.835 238.343" stroke="#263238" stroke-miterlimit="10"/>
<path d="M225.765 270.046H266.537C265.753 265.058 262.551 265.934 262.122 258.193C261.912 254.308 265.516 249.494 265.205 244.388C264.941 240.175 260.79 235.863 260.47 231.048C260.178 226.699 263.718 221.93 263.381 217.198C263.052 212.767 258.819 208.527 258.472 203.923C258.126 199.318 261.574 194.568 261.209 190.027C260.844 185.486 256.511 181.319 256.055 176.842C255.599 172.365 258.947 167.296 258.436 162.892C257.889 158.223 253.482 154.184 252.88 149.881C252.214 145.094 255.343 139.969 254.613 135.83C253.701 130.76 248.993 127.095 247.999 123.357C246.174 116.39 246.375 109.68 244.194 109.233C241.859 108.768 241.33 115.351 239.56 122.709C238.647 126.356 234.086 130.149 233.292 135.228C232.681 139.331 235.947 144.346 235.409 149.096C234.934 153.373 230.637 157.485 230.218 162.126C229.816 166.503 233.31 171.317 232.955 175.885C232.599 180.453 228.457 184.565 228.165 189.079C227.873 193.592 231.477 198.315 231.23 202.755C230.984 207.196 226.878 211.636 226.669 216.031C226.45 220.672 230.117 225.359 229.935 229.708C229.743 234.486 225.701 238.826 225.556 243.029C225.373 248.099 229.095 252.776 228.977 256.633C228.73 265.013 224.899 263.271 224.753 270.018L225.765 270.046Z" fill="#C0EB6A"/>
<path d="M243.264 122.673V268.195" stroke="#263238" stroke-miterlimit="10"/>
<path d="M249.632 137.927L242.99 143.653L237.562 136.422" stroke="#263238" stroke-miterlimit="10"/>
<path d="M249.632 163.257L242.99 168.983L237.562 161.752" stroke="#263238" stroke-miterlimit="10"/>
<path d="M249.632 187.073L242.99 192.808L237.562 185.568" stroke="#263238" stroke-miterlimit="10"/>
<path d="M249.632 215.42L242.99 221.146L237.562 213.916" stroke="#263238" stroke-miterlimit="10"/>
<path d="M249.632 244.069L242.99 249.795L237.562 242.555" stroke="#263238" stroke-miterlimit="10"/>
<path d="M23.4378 270.046H64.2099C63.4253 265.058 60.223 265.934 59.8033 258.193C59.5844 254.308 63.1881 249.494 62.8779 244.388C62.6224 240.175 58.4713 235.863 58.1429 231.048C57.8601 226.699 61.3999 221.93 61.0532 217.198C60.7339 212.767 56.4916 208.527 56.1449 203.923C55.7982 199.318 59.2559 194.568 58.8819 190.027C58.5078 185.486 54.1925 181.319 53.7363 176.842C53.2802 172.365 56.6284 167.296 56.1175 162.892C55.5701 158.223 51.1544 154.184 50.5614 149.881C49.8954 145.094 53.0156 139.969 52.2857 135.83C51.3734 130.76 46.6658 127.095 45.6804 123.357C43.8558 116.39 44.0565 109.68 41.876 109.233C39.5405 108.768 39.0022 115.351 37.2414 122.709C36.3291 126.356 31.7674 130.149 30.9737 135.228C30.3624 139.331 33.6194 144.346 33.0903 149.096C32.6067 153.373 28.3097 157.485 27.89 162.126C27.4977 166.503 30.9919 171.317 30.627 175.885C30.2621 180.453 26.1201 184.565 25.8281 189.079C25.5362 193.592 29.1399 198.315 28.8936 202.755C28.6472 207.196 24.5509 211.636 24.3319 216.031C24.1038 220.672 27.7714 225.359 27.5981 229.708C27.3973 234.486 23.3557 238.826 23.2097 243.029C23.0273 248.099 26.7587 252.776 26.6401 256.633C26.3938 265.013 22.5529 263.271 22.416 270.018L23.4378 270.046Z" fill="#C0EB6A"/>
<path d="M40.9637 122.673V268.195" stroke="#263238" stroke-miterlimit="10"/>
<path d="M47.3317 137.927L40.69 143.653L35.2616 136.422" stroke="#263238" stroke-miterlimit="10"/>
<path d="M47.3317 163.257L40.69 168.983L35.2616 161.752" stroke="#263238" stroke-miterlimit="10"/>
<path d="M47.3317 187.073L40.69 192.808L35.2616 185.568" stroke="#263238" stroke-miterlimit="10"/>
<path d="M47.3317 215.42L40.69 221.146L35.2616 213.916" stroke="#263238" stroke-miterlimit="10"/>
<path d="M47.3317 244.069L40.69 249.795L35.2616 242.555" stroke="#263238" stroke-miterlimit="10"/>
<path d="M235.81 270.757C255.184 270.757 270.889 255.061 270.889 235.699C270.889 216.336 255.184 200.64 235.81 200.64C216.436 200.64 200.731 216.336 200.731 235.699C200.731 255.061 216.436 270.757 235.81 270.757Z" fill="#263238"/>
<path d="M235.819 266.827C253.016 266.827 266.957 252.894 266.957 235.708C266.957 218.521 253.016 204.588 235.819 204.588C218.622 204.588 204.681 218.521 204.681 235.708C204.681 252.894 218.622 266.827 235.819 266.827Z" fill="white"/>
<path d="M235.828 262.806C246.575 262.797 256.31 256.442 260.644 246.613" stroke="#263238" stroke-linecap="round" stroke-linejoin="round"/>
<path d="M235.828 208.564C225.984 208.554 216.907 213.87 212.108 222.459" stroke="#263238" stroke-linecap="round" stroke-linejoin="round"/>
<path d="M235.828 211.281C226.97 211.281 218.804 216.077 214.489 223.809" stroke="#263238" stroke-linecap="round" stroke-linejoin="round"/>
<path d="M235.363 260.08H235.828C245.545 260.08 254.349 254.336 258.235 245.427" stroke="#263238" stroke-linecap="round" stroke-linejoin="round"/>
<path d="M235.828 214.299C228.055 214.299 220.884 218.511 217.116 225.304" stroke="#263238" stroke-linecap="round" stroke-linejoin="round"/>
<path d="M235.828 257.071C244.267 257.071 251.922 252.111 255.361 244.415" stroke="#263238" stroke-linecap="round" stroke-linejoin="round"/>
<path d="M235.828 217.618C229.287 217.618 223.247 221.146 220.054 226.854" stroke="#263238" stroke-linecap="round" stroke-linejoin="round"/>
<path d="M235.828 253.743C242.826 253.743 249.194 249.713 252.177 243.394" stroke="#263238" stroke-linecap="round" stroke-linejoin="round"/>
<path d="M149.623 260.461C163.322 246.77 163.322 224.572 149.623 210.881C135.923 197.19 113.713 197.19 100.013 210.881C86.3141 224.572 86.314 246.77 100.013 260.461C113.713 274.152 135.923 274.152 149.623 260.461Z" fill="#263238"/>
<path d="M124.825 266.782C142.022 266.782 155.963 252.849 155.963 235.662C155.963 218.475 142.022 204.543 124.825 204.543C107.628 204.543 93.6873 218.475 93.6873 235.662C93.6873 252.849 107.628 266.782 124.825 266.782Z" fill="white"/>
<path d="M124.825 262.806C135.581 262.806 145.334 256.451 149.668 246.613" stroke="#263238" stroke-linecap="round" stroke-linejoin="round"/>
<path d="M124.825 208.564C114.981 208.545 105.903 213.87 101.104 222.459" stroke="#263238" stroke-linecap="round" stroke-linejoin="round"/>
<path d="M124.825 211.281C115.966 211.281 107.801 216.077 103.486 223.809" stroke="#263238" stroke-linecap="round" stroke-linejoin="round"/>
<path d="M124.36 260.08H124.825C134.55 260.08 143.345 254.336 147.232 245.427" stroke="#263238" stroke-linecap="round" stroke-linejoin="round"/>
<path d="M124.825 214.299C117.052 214.299 109.89 218.511 106.113 225.304" stroke="#263238" stroke-linecap="round" stroke-linejoin="round"/>
<path d="M124.825 257.071C133.264 257.071 140.919 252.111 144.367 244.415" stroke="#263238" stroke-linecap="round" stroke-linejoin="round"/>
<path d="M124.825 217.618C118.284 217.618 112.253 221.146 109.051 226.854" stroke="#263238" stroke-linecap="round" stroke-linejoin="round"/>
<path d="M124.825 253.743C131.823 253.743 138.191 249.713 141.174 243.394" stroke="#263238" stroke-linecap="round" stroke-linejoin="round"/>
<path d="M207.619 120.101L203.395 101.437C203.395 101.437 198.377 99.6135 194.363 101.838C191.051 103.662 179.474 119.819 175.532 125.408L175.295 125.171C175.131 124.888 174.757 124.788 174.474 124.952C174.383 125.007 174.31 125.08 174.255 125.171C174.255 125.171 171.518 127.596 171.628 128.444C171.901 128.982 172.257 129.475 172.668 129.912L150.142 152.707C150.142 152.707 144.066 152.844 142.98 153.382C141.895 153.92 141.895 154.057 141.895 156.117C141.895 158.178 142.168 160.038 142.57 160.175C142.971 160.312 145.416 160.849 145.681 160.038C145.946 159.226 145.006 157.74 145.006 157.74C145.006 157.74 145.681 155.99 147.04 156.528C148.4 157.066 149.467 158.825 151.228 158.151C152.989 157.476 154.476 154.631 154.476 154.631L178.808 136.614C179.273 137.106 179.766 137.571 180.295 138C181.161 138.565 184.2 136.277 184.154 135.146C184.154 135.1 184.154 135.064 184.154 135.018L207.619 120.101Z" fill="#263238"/>
<path d="M149.504 168.837C149.066 168.837 148.673 168.6 148.454 168.226L142.78 158.306C142.451 157.722 142.652 156.993 143.236 156.664C143.82 156.336 144.55 156.537 144.878 157.111L150.553 167.013C150.899 167.579 150.708 168.326 150.142 168.664C149.951 168.782 149.732 168.837 149.504 168.837Z" fill="white" stroke="#263238" stroke-linecap="round" stroke-linejoin="round"/>
<path d="M170.168 128.618L146.803 152.324C146.803 152.324 140.718 152.461 139.632 152.999C138.547 153.537 138.547 153.674 138.547 155.734C138.547 157.795 138.82 159.646 139.231 159.783C139.641 159.919 142.068 160.457 142.333 159.646C142.597 158.834 141.658 157.348 141.658 157.348C141.658 157.348 142.333 155.598 143.692 156.135C145.051 156.673 146.119 158.433 147.88 157.758C149.64 157.084 151.128 154.248 151.128 154.248L176.527 135.374L170.168 128.618Z" fill="white" stroke="#263238" stroke-linecap="round" stroke-linejoin="round"/>
<path d="M146.666 157.449C146.666 155.898 145.416 154.64 143.865 154.631C142.314 154.631 141.055 155.88 141.046 157.43C141.046 158.98 142.296 160.239 143.847 160.248C145.398 160.248 146.648 158.999 146.657 157.449H146.666Z" fill="#263238"/>
<path d="M220.136 160.002C217.6 161.178 214.881 161.925 212.099 162.208C207.683 162.609 204.672 162.007 205.712 165.217C206.752 168.427 213.54 169.028 218.567 167.825C223.594 166.621 225.993 164.816 225.391 161.606C224.789 158.397 221.742 159.4 220.136 160.002Z" fill="#263238"/>
<path d="M204.271 152.972C204.271 152.972 173.343 175.858 172.54 180.672C171.737 185.486 177.357 222.013 177.357 222.013L182.174 223.617C182.174 223.617 184.793 191.103 187.402 184.884C190.011 178.666 215.921 164.013 216.523 156.619C217.126 149.224 210.694 149.16 204.271 152.972Z" fill="#263238"/>
<path d="M177.357 222.013C175.852 222.432 174.301 222.696 172.741 222.815C170.131 223.016 166.519 221.611 166.519 222.614C166.519 223.617 170.934 227.438 173.142 227.638C175.35 227.839 178.16 228.04 178.16 228.04L178.269 229.599L181.171 230.447L182.174 223.617L177.357 222.013Z" fill="#263238"/>
<path d="M168.793 224.789L167.433 227.474L176.932 232.28L178.292 229.595L168.793 224.789Z" fill="white" stroke="#263238" stroke-linecap="round" stroke-linejoin="round"/>
<path d="M172.841 228.541L184.993 236.866L186.179 233.93L173.142 227.638L172.841 228.541Z" fill="white" stroke="#263238" stroke-linecap="round" stroke-linejoin="round"/>
<path d="M236.503 233.674L212.016 172.192C211.953 172.037 211.852 171.891 211.734 171.773L213.029 168.363C213.266 167.743 212.956 167.041 212.336 166.803C211.715 166.566 211.013 166.876 210.776 167.506L207.947 174.955H149.075C150.124 170.633 150.662 167.989 150.69 167.889C150.817 167.232 150.398 166.603 149.741 166.475C149.084 166.348 148.454 166.767 148.327 167.424C148.245 167.825 139.951 208.345 123.794 235.069C123.457 235.644 123.639 236.373 124.205 236.72C124.77 237.057 125.509 236.875 125.856 236.31C134.432 222.131 140.809 204.16 144.951 190.191L184.92 237.458C184.993 237.659 185.084 237.841 185.212 238.015C185.659 238.635 186.389 239.008 187.155 239.008H187.265L234.387 236.966C235.162 236.93 235.874 236.519 236.303 235.872C236.722 235.215 236.795 234.404 236.503 233.684V233.674ZM148.473 177.362H207.035L185.44 234.349L145.763 187.41C146.849 183.644 147.743 180.234 148.473 177.362ZM187.165 236.629L210.529 174.991L234.25 234.577L187.165 236.629Z" fill="white" stroke="#263238" stroke-linecap="round" stroke-linejoin="round"/>
<path d="M152.314 167.651C152.314 166.101 151.055 164.843 149.504 164.843C147.953 164.843 146.694 166.101 146.694 167.651C146.694 169.202 147.953 170.46 149.504 170.46C151.055 170.46 152.314 169.202 152.314 167.651Z" fill="white" stroke="#263238" stroke-linecap="round" stroke-linejoin="round"/>
<path d="M128.794 235.68C128.794 233.492 127.015 231.714 124.825 231.714C122.635 231.714 120.856 233.492 120.856 235.68C120.856 237.869 122.635 239.647 124.825 239.647C127.015 239.647 128.794 237.869 128.794 235.68Z" fill="#263238"/>
<path d="M239.313 235.68C239.313 233.483 237.543 231.705 235.345 231.696C233.146 231.696 231.367 233.465 231.358 235.662C231.349 237.86 233.128 239.638 235.326 239.647H235.336C237.525 239.647 239.304 237.869 239.313 235.68Z" fill="#263238"/>
<path d="M194.564 235.68C194.564 231.149 190.887 227.474 186.353 227.474C181.818 227.474 178.142 231.149 178.142 235.68C178.142 240.212 181.818 243.886 186.353 243.886C190.887 243.886 194.564 240.212 194.564 235.68Z" fill="#263238"/>
<path d="M198.842 237.267L186.179 233.93C185.212 233.656 184.199 234.222 183.926 235.197C183.926 235.215 183.926 235.234 183.917 235.243C183.643 236.209 184.209 237.221 185.176 237.495C185.267 237.522 185.358 237.54 185.458 237.55L199.654 239.473L198.842 237.267Z" fill="white" stroke="#263238" stroke-linecap="round" stroke-linejoin="round"/>
<path d="M204.221 232.226L197.06 240.1L199.288 242.124L206.449 234.25L204.221 232.226Z" fill="white" stroke="#263238" stroke-linecap="round" stroke-linejoin="round"/>
<path d="M204.079 152.169C204.079 152.169 179.839 174.572 178.634 180.79C177.43 187.009 202.072 227.237 202.072 227.237L206.889 225.632C206.889 225.632 193.031 190.3 194.837 187.693C196.644 185.085 229.068 163.193 233.894 155.78C238.72 148.367 235.983 140.954 232.371 137.544C228.758 134.134 204.079 152.169 204.079 152.169Z" fill="#263238"/>
<path d="M188.004 180.799L194.828 187.693L191.453 179.313" stroke="white" stroke-width="0.75" stroke-linecap="round" stroke-linejoin="round"/>
<path d="M183.315 194.367C183.315 194.367 178.379 182.286 179.857 178.584C181.335 174.882 205.512 156.646 205.512 156.646C205.512 156.646 217.6 152.58 225.747 154.175" stroke="white" stroke-width="0.75" stroke-linecap="round" stroke-linejoin="round"/>
<path d="M219.087 151.95C219.087 151.95 223.275 149.981 229.442 152.197" stroke="white" stroke-width="0.75" stroke-linecap="round" stroke-linejoin="round"/>
<path d="M202.063 227.237C202.063 227.237 199.855 229.644 197.638 231.851C195.421 234.057 192.62 234.659 193.624 235.261C194.627 235.863 196.233 236.464 199.253 235.461C202.273 234.459 206.077 231.048 206.077 231.048L206.679 232.051L210.091 230.228L206.88 225.614L202.063 227.237Z" fill="#263238"/>
<path d="M189.783 72.3418C186.435 68.9864 181.709 67.3816 177.01 68.0016C172.713 68.7767 171.536 74.603 170.715 78.1043L169.958 81.3047L170.031 83.7574L168.663 88.9729C168.498 89.5838 168.854 90.2129 169.474 90.3862C169.529 90.4044 169.584 90.4135 169.63 90.4135L171.162 90.6141C171.427 92.3192 173.16 95.711 173.388 96.8964C174.301 101.455 177.284 101.136 179.227 100.434C180.477 99.8415 181.645 99.0847 182.694 98.1911L187.256 102.048L195.412 93.1762L191.927 88.1431C191.927 88.1431 192.976 75.688 189.783 72.3418Z" fill="white" stroke="#263238" stroke-linecap="round" stroke-linejoin="round"/>
<path d="M173.188 85.0065C173.315 85.7268 173.188 86.356 172.905 86.4016C172.622 86.4472 172.294 85.9092 172.175 85.1889C172.056 84.4686 172.175 83.8394 172.449 83.7938C172.722 83.7482 173.06 84.2862 173.188 85.0065Z" fill="#263238"/>
<path d="M170.989 82.1526C171.901 81.3229 173.315 81.3867 174.146 82.3076C174.228 82.3988 174.31 82.4991 174.374 82.5994" stroke="#263238" stroke-linecap="round" stroke-linejoin="round"/>
<path d="M177.777 77.0466C177.777 77.0466 175.341 79.9369 176.253 81.0037C177.503 82.2438 178.826 83.4018 180.203 84.4959C180.203 84.4959 182.338 80.6937 185.376 82.2164C188.414 83.7391 185.988 87.3863 187.046 88.8999C188.104 90.4135 191.763 88.1431 192.064 87.3863C192.365 86.6295 197.848 75.533 198.149 71.4299C198.45 67.3268 187.201 63.2238 182.338 62.312C177.476 61.4002 173.817 63.5247 174.73 62.6129C175.642 61.7011 177.165 59.2666 174.273 58.9657C171.381 58.6648 167.586 63.0688 167.586 65.6491C167.586 67.0989 168.717 68.3025 170.168 68.3845C170.168 68.3845 162.869 66.5609 164.849 70.819C166.829 75.0771 170.168 74.9221 173.215 75.0771C174.939 75.1136 176.572 75.8156 177.777 77.0466Z" fill="#263238"/>
<path d="M183.397 82.6723H183.296C182.795 82.6176 182.439 82.1708 182.493 81.6693L183.561 72.2414C183.616 71.7399 184.072 71.3752 184.574 71.439C185.075 71.4937 185.44 71.9496 185.386 72.4511L184.327 81.8699C184.273 82.3349 183.871 82.6814 183.397 82.6723Z" fill="white" stroke="#263238" stroke-miterlimit="10"/>
<path d="M182.986 91.544C180.678 91.544 178.799 89.684 178.789 87.368C178.789 87.368 178.789 87.368 178.789 87.3589V83.4382C178.789 81.1222 180.669 79.2531 182.986 79.2531C185.303 79.2531 187.174 81.1222 187.183 83.4382V87.3589C187.183 89.6657 185.303 91.544 182.995 91.544C182.995 91.544 182.995 91.544 182.986 91.544Z" fill="white" stroke="#263238" stroke-miterlimit="10"/>
<path d="M184.063 63.0688L182.74 72.7703C182.594 73.7641 183.278 74.6941 184.282 74.84C184.309 74.84 184.327 74.84 184.355 74.8491H184.464C185.468 74.9768 186.38 74.2747 186.517 73.2809C186.517 73.2718 186.517 73.2535 186.517 73.2444L187.73 63.5247C187.867 62.5308 187.174 61.6099 186.17 61.4731C186.152 61.4731 186.143 61.4731 186.125 61.4731C185.13 61.3364 184.209 62.0293 184.072 63.0323C184.072 63.0505 184.072 63.0597 184.072 63.0779L184.063 63.0688Z" fill="white" stroke="#263238" stroke-miterlimit="10"/>
<path d="M196.635 89.5107C196.635 89.5107 182.037 102.741 182.247 104.947C182.457 107.154 181.992 117.001 187.411 128.043C192.83 139.085 199.326 148.367 201.734 152.579C204.143 156.792 211.159 153.674 211.159 153.674C211.159 153.674 225.911 148.504 230.728 143.89C235.545 139.276 230.728 130.851 230.728 130.851C230.728 130.851 212.901 105.367 207.081 99.1484C203.869 95.6562 200.375 92.4285 196.635 89.5107Z" fill="#C0EB6A" stroke="#263238" stroke-linecap="round" stroke-linejoin="round"/>
<path d="M181.882 106.835C181.882 106.835 184.847 104.2 187.247 102.021C189.646 99.8414 201.798 97.4161 204.836 98.0178C207.875 98.6196 208.641 101.364 209.252 101.209C209.863 101.054 210.164 97.106 206.971 91.7903C203.778 86.4745 198.906 84.1951 196.324 85.8636C193.743 87.5322 187.356 95.5925 184.619 98.9296C181.882 102.267 180.815 104.255 181.882 106.835Z" fill="#C0EB6A" stroke="#263238" stroke-linecap="round" stroke-linejoin="round"/>
<path d="M195.303 124.277C195.303 124.277 205.083 125.089 211.88 123.73" stroke="#263238" stroke-linecap="round" stroke-linejoin="round"/>
<path d="M191.489 125.071C191.489 125.071 200.731 130.779 210.247 131.316" stroke="#263238" stroke-linecap="round" stroke-linejoin="round"/>
<path d="M200.056 100.99C200.056 100.99 195.029 99.1667 191.015 101.391C187 103.616 170.843 126.894 170.843 126.894L179.054 135.675L204.234 119.682" fill="#C0EB6A"/>
<path d="M200.056 100.99C200.056 100.99 195.029 99.1667 191.015 101.391C187 103.616 170.843 126.894 170.843 126.894L179.054 135.675L204.234 119.682" stroke="#263238" stroke-linecap="round" stroke-linejoin="round"/>
<path d="M170.907 124.733C170.907 124.733 168.17 127.159 168.279 128.007C168.389 128.855 176.08 136.997 176.946 137.553C177.813 138.109 180.851 135.83 180.806 134.699C180.76 133.569 171.947 124.724 171.947 124.724C171.774 124.442 171.409 124.341 171.126 124.515C171.035 124.569 170.962 124.642 170.907 124.733Z" fill="#C0EB6A" stroke="#263238" stroke-linecap="round" stroke-linejoin="round"/>
<path d="M1.94326 273H359.066C360.133 273 361 272.134 361 271.067C361 270 360.133 269.134 359.066 269.134H1.94326C0.875837 269.134 0.0091233 269.991 0 271.058C0 271.058 0 271.058 0 271.067C0 272.134 0.866714 273 1.93414 273C1.93414 273 1.93414 273 1.94326 273Z" fill="#263238"/>
</g>
<defs>
<clipPath id="clip0_22_350">
<rect width="361" height="273" fill="white"/>
</clipPath>
</defs>
</svg>
