<svg width="47" height="40" viewBox="0 0 47 40" fill="none" xmlns="http://www.w3.org/2000/svg">
<rect width="47" height="40" rx="5" fill="black"/>
<path d="M7.66 28C7.35333 28 7.08667 27.8867 6.86 27.66C6.63333 27.4333 6.52 27.1667 6.52 26.86V14.54C6.52 14.2333 6.63333 13.9667 6.86 13.74C7.08667 13.5133 7.35333 13.4 7.66 13.4H8.64C9.4 13.4 9.95333 13.7333 10.3 14.4L14.5 22.34C14.5 22.3533 14.5067 22.36 14.52 22.36C14.5333 22.36 14.54 22.3533 14.54 22.34V14.54C14.54 14.2333 14.6533 13.9667 14.88 13.74C15.1067 13.5133 15.3733 13.4 15.68 13.4H16.66C16.9667 13.4 17.2333 13.5133 17.46 13.74C17.6867 13.9667 17.8 14.2333 17.8 14.54V26.86C17.8 27.1667 17.6867 27.4333 17.46 27.66C17.2333 27.8867 16.9667 28 16.66 28H15.68C14.92 28 14.3667 27.6667 14.02 27L9.82 19.06C9.82 19.0467 9.81333 19.04 9.8 19.04C9.78667 19.04 9.78 19.0467 9.78 19.06V26.86C9.78 27.1667 9.66667 27.4333 9.44 27.66C9.21333 27.8867 8.94667 28 8.64 28H7.66ZM20.9764 28C20.7231 28 20.5297 27.8933 20.3964 27.68C20.2764 27.4667 20.2831 27.2467 20.4164 27.02L22.8164 22.84C22.8697 22.7467 22.8697 22.6533 22.8164 22.56L20.5164 18.58C20.3831 18.3533 20.3764 18.1333 20.4964 17.92C20.6297 17.7067 20.8231 17.6 21.0764 17.6H22.2764C22.6097 17.6 22.9231 17.7 23.2164 17.9C23.5097 18.0867 23.7297 18.3333 23.8764 18.64L24.9964 21.06C24.9964 21.0733 25.0031 21.08 25.0164 21.08C25.0297 21.08 25.0364 21.0733 25.0364 21.06L26.1564 18.64C26.2897 18.3333 26.5031 18.0867 26.7964 17.9C27.0897 17.7 27.4097 17.6 27.7564 17.6H28.8764C29.1164 17.6 29.2964 17.7067 29.4164 17.92C29.5497 18.1333 29.5564 18.3533 29.4364 18.58L27.1364 22.56C27.0697 22.6533 27.0697 22.7467 27.1364 22.84L29.5364 27.02C29.6564 27.2467 29.6497 27.4667 29.5164 27.68C29.3964 27.8933 29.2164 28 28.9764 28H27.7764C27.4297 28 27.1031 27.9067 26.7964 27.72C26.5031 27.5333 26.2897 27.2867 26.1564 26.98L24.9564 24.38C24.9564 24.3667 24.9497 24.36 24.9364 24.36C24.9231 24.36 24.9164 24.3667 24.9164 24.38L23.7164 26.98C23.5697 27.2867 23.3431 27.5333 23.0364 27.72C22.7431 27.9067 22.4297 28 22.0964 28H20.9764ZM35.6433 22.16C33.9633 21.6267 32.7499 20.9667 32.0033 20.18C31.2566 19.38 30.8833 18.4067 30.8833 17.26C30.8833 16.0067 31.3166 15.02 32.1833 14.3C33.0633 13.5667 34.3166 13.2 35.9433 13.2C37.1699 13.2 38.2833 13.34 39.2833 13.62C39.6033 13.7133 39.8566 13.9067 40.0433 14.2C40.2433 14.48 40.3433 14.7933 40.3433 15.14V15.72C40.3433 15.9867 40.2299 16.1933 40.0033 16.34C39.7766 16.4867 39.5366 16.5133 39.2833 16.42C38.1499 16.02 37.1033 15.82 36.1433 15.82C34.9166 15.82 34.3033 16.3 34.3033 17.26C34.3033 18.0733 34.8366 18.6533 35.9033 19C37.7433 19.56 39.0166 20.2133 39.7233 20.96C40.4433 21.7067 40.8033 22.6867 40.8033 23.9C40.8033 26.7667 38.9966 28.2 35.3833 28.2C34.2366 28.2 33.1966 28.02 32.2633 27.66C31.9433 27.54 31.6899 27.3333 31.5033 27.04C31.3299 26.7333 31.2433 26.4 31.2433 26.04V25.4C31.2433 25.16 31.3499 24.98 31.5633 24.86C31.7766 24.7267 31.9899 24.7133 32.2033 24.82C33.1766 25.3 34.1699 25.54 35.1833 25.54C35.8899 25.54 36.4233 25.4067 36.7833 25.14C37.1566 24.86 37.3433 24.4667 37.3433 23.96C37.3433 23.52 37.2166 23.16 36.9633 22.88C36.7099 22.6 36.2699 22.36 35.6433 22.16Z" fill="white"/>
</svg>
